<?xml version="1.0" encoding="UTF-8" standalone="no"?>
<svg width="18px" height="18px" viewBox="0 0 18 18" version="1.1" xmlns="http://www.w3.org/2000/svg" xmlns:xlink="http://www.w3.org/1999/xlink">
    <!-- Generator: Sketch 39.1 (31720) - http://www.bohemiancoding.com/sketch -->
    <title>Group 3</title>
    <desc>Created with Sketch.</desc>
    <defs>
        <polygon id="path-1" points="2.5 1.24542045 2.5 0 0.00931818182 0 0.00931818182 2.49084091 2.5 2.49084091"></polygon>
    </defs>
    <g id="Top-Bar" stroke="none" stroke-width="1" fill="none" fill-rule="evenodd">
        <g id="Building-Specs" transform="translate(-1290.000000, -2512.000000)">
            <g id="Behaviour" transform="translate(99.000000, 1430.000000)">
                <g id="Top-Bar---Tab-Overflow" transform="translate(0.000000, 1055.000000)">
                    <g id="Top-Bar">
                        <g id="Info">
                            <g transform="translate(1192.000000, 28.000000)">
                                <g id="Group-3">
                                    <g id="Page-1" transform="translate(6.000000, 3.000000)">
                                        <polygon id="Fill-1" fill="#FFFFFF" points="0 2.95463636 0 3.63645455 0.898636364 4.15122727 0.909090909 10.0000909 2.95454545 10.0000909 2.95454545 2.95463636"></polygon>
                                        <g id="Group-4" transform="translate(0.681818, 0.000000)">
                                            <mask id="mask-2" fill="white">
                                                <use xlink:href="#path-1"></use>
                                            </mask>
                                            <g id="Clip-3"></g>
                                            <path d="M2.5,1.24538636 C2.5,1.93311364 1.9425,2.49084091 1.25454545,2.49084091 C0.566818182,2.49084091 0.00931818182,1.93311364 0.00931818182,1.24538636 C0.00931818182,0.557659091 0.566818182,-6.81818182e-05 1.25454545,-6.81818182e-05 C1.9425,-6.81818182e-05 2.5,0.557659091 2.5,1.24538636" id="Fill-2" fill="#FFFFFF" mask="url(#mask-2)"></path>
                                        </g>
                                    </g>
                                    <circle id="Oval-3" stroke="#FFFFFF" cx="8" cy="8" r="8"></circle>
                                </g>
                            </g>
                        </g>
                    </g>
                </g>
            </g>
        </g>
    </g>
</svg>