<svg width="112" height="24" viewBox="0 0 112 24" fill="none" xmlns="http://www.w3.org/2000/svg">
<g clip-path="url(#clip0_6688_5960)">
<path d="M6.024 20V5.192H0.36V3.2H14.256V5.192H8.568V20H6.024ZM25.6699 18.272C26.0779 18.272 26.5099 18.152 26.8939 18.008V19.856C26.3899 20.024 25.4779 20.12 24.9019 20.12C23.1739 20.12 22.3579 19.328 22.2619 17.552C21.4699 18.992 19.9819 20.192 17.4859 20.192C15.0619 20.192 13.1179 19.04 13.1179 16.472C13.1179 13.664 15.3019 12.656 18.7339 12.656C20.0059 12.656 21.1579 12.752 22.2139 12.872V12.656C22.2139 10.184 21.0859 9.08 18.7819 9.08C17.1979 9.08 15.4699 9.44 14.1259 9.944L13.9819 8C15.4699 7.568 17.2939 7.328 18.8059 7.328C23.6059 7.328 24.5899 9.872 24.5899 12.872V17.024C24.5899 18.032 25.1659 18.272 25.6699 18.272ZM18.1819 18.512C20.4139 18.512 22.2379 16.64 22.2379 14.672V14.312C21.4459 14.216 20.3659 14.096 19.1659 14.096C16.9339 14.096 15.4939 14.624 15.4939 16.352C15.4939 17.984 16.8139 18.512 18.1819 18.512ZM32.9949 20.168C31.0029 20.168 29.3469 19.688 28.1949 19.208L28.3149 17.336C29.2269 17.792 30.8589 18.56 32.8269 18.56C34.7469 18.56 35.6109 17.864 35.6109 16.712C35.6109 15.464 34.6029 15.176 32.3469 14.576C30.3549 14.048 28.2189 13.4 28.2189 10.808C28.2189 8.384 30.2109 7.328 33.0909 7.328C34.6269 7.328 36.4029 7.664 37.5309 8.072L37.3869 9.944C36.7869 9.656 35.0589 8.984 33.3069 8.984C31.4589 8.984 30.6429 9.656 30.6429 10.664C30.6429 12.056 31.8429 12.344 33.8349 12.896C35.8749 13.424 38.0589 14.072 38.0589 16.592C38.0589 19.112 35.8749 20.168 32.9949 20.168ZM49.1582 7.52H51.5102L44.9582 24.08H42.5582L44.1422 20.168L38.9102 7.52H41.4542L43.6622 13.04C44.2382 14.504 44.8142 16.088 45.3662 17.576H45.4382C45.9662 16.16 46.3982 14.84 47.0702 13.04L49.1582 7.52ZM59.2063 20V3.2H71.1583V5.192H61.7263V10.808H69.8623V12.776H61.7263V18.008H71.4463V20H59.2063ZM74.4641 20V3.2H78.1361L83.7761 15.608H83.8241L89.3681 3.2H92.8241V20H90.4001V12.896C90.4001 10.88 90.5201 7.904 90.6641 5.624L90.6161 5.6L84.8321 18.248H82.4561L76.6721 5.624H76.6241C76.8161 8.096 76.8641 10.736 76.8641 12.896V20H74.4641ZM110.617 8.792C110.617 10.976 109.273 13.16 106.801 14.024L110.353 20H107.569L104.377 14.384H99.6013V20H97.0813V3.2H104.449C108.409 3.2 110.617 5.984 110.617 8.792ZM99.6013 5.168V12.416H104.017C106.537 12.416 107.953 10.712 107.953 8.792C107.953 6.872 106.561 5.168 104.017 5.168H99.6013Z" fill="white"/>
</g>
<defs>
<clipPath id="clip0_6688_5960">
<rect width="112" height="24" fill="white"/>
</clipPath>
</defs>
</svg>
