<?xml version="1.0" encoding="UTF-8" standalone="no"?>
<svg width="24px" height="24px" viewBox="0 0 24 24" version="1.1" xmlns="http://www.w3.org/2000/svg" xmlns:xlink="http://www.w3.org/1999/xlink">
    <!-- Generator: Sketch 39.1 (31720) - http://www.bohemiancoding.com/sketch -->
    <title>DLS_PersonPortraitCircle</title>
    <desc>Created with Sketch.</desc>
    <defs></defs>
    <g id="Top-Bar" stroke="none" stroke-width="1" fill="none" fill-rule="evenodd">
        <g id="Building-Specs" transform="translate(-1122.000000, -2509.000000)" fill="#FFFFFF">
            <g id="Behaviour" transform="translate(99.000000, 1430.000000)">
                <g id="Top-Bar---Tab-Overflow" transform="translate(0.000000, 1055.000000)">
                    <g id="Top-Bar">
                        <g id="User">
                            <g transform="translate(1023.000000, 24.000000)">
                                <g id="DLS_PersonPortraitCircle">
                                    <g id="Canvas">
                                        <path d="M12,5.45454545 C9.7406533,5.45454545 7.90909091,7.28610784 7.90909091,9.54545455 C7.90909091,11.8048012 9.7406533,13.6363636 12,13.6363636 C14.2593467,13.6363636 16.0909091,11.8048012 16.0909091,9.54545455 C16.0909091,7.28610784 14.2593467,5.45454545 12,5.45454545 L12,5.45454545 Z M12,9.68921912e-16 C5.372583,-3.63345717e-16 8.47806673e-16,5.372583 0,12 C-8.47806673e-16,18.627417 5.372583,24 12,24 C18.627417,24 24,18.627417 24,12 C24,8.81740212 22.7357179,5.76515517 20.4852814,3.51471863 C18.2348448,1.26428208 15.1825979,1.21115239e-16 12,0 L12,9.68921912e-16 Z M19.3636364,18.4745455 L19.3636364,17.7272727 C19.36094,15.7268453 17.9119678,14.021765 15.9381818,13.6963636 C13.7356329,15.7985342 10.2698217,15.7985342 8.06727273,13.6963636 C6.09131942,14.0193798 4.63950073,15.7250936 4.63636364,17.7272727 L4.63636364,18.4745455 C1.1552578,14.5273425 1.40564086,8.53735466 5.2040158,4.89443587 C9.00239073,1.25151708 14.9976093,1.25151708 18.7959842,4.89443587 C22.5943591,8.53735466 22.8447422,14.5273425 19.3636364,18.4745455 L19.3636364,18.4745455 Z" id="Shape"></path>
                                    </g>
                                </g>
                            </g>
                        </g>
                    </g>
                </g>
            </g>
        </g>
    </g>
</svg>